<?xml version="1.0" standalone="no"?>
<!DOCTYPE svg PUBLIC "-//W3C//DTD SVG 20010904//EN"
 "http://www.w3.org/TR/2001/REC-SVG-20010904/DTD/svg10.dtd">
<svg version="1.0" xmlns="http://www.w3.org/2000/svg"
 width="626.000000pt" height="626.000000pt" viewBox="0 0 626.000000 626.000000"
 preserveAspectRatio="xMidYMid meet">

<g transform="translate(0.000000,626.000000) scale(0.100000,-0.100000)"
fill="#000000" stroke="none">
<path d="M4728 6253 c-15 -4 -18 -17 -18 -83 0 -94 -21 -210 -50 -279 -30 -68
-109 -142 -183 -170 -114 -42 -162 -47 -572 -61 -216 -7 -284 -13 -340 -29
-149 -41 -202 -69 -284 -151 -99 -99 -147 -222 -159 -406 -5 -84 -4 -118 4
-121 6 -2 38 -3 70 -1 l59 3 7 87 c13 149 63 265 146 338 64 57 130 88 252
118 104 25 109 25 545 27 458 2 548 8 673 47 98 30 153 61 220 122 105 98 152
223 152 405 l0 102 -52 -3 -53 -3 -6 -105 c-10 -179 -57 -280 -161 -350 -71
-47 -159 -75 -278 -90 -126 -15 -129 -14 -84 18 138 101 192 224 201 460 l6
132 -39 -1 c-22 -1 -47 -3 -56 -6z"/>
<path d="M2468 4488 l-3 -423 -986 -5 -986 -5 -36 -28 c-89 -68 -99 -185 -24
-265 61 -64 30 -62 1084 -62 l953 0 0 -420 0 -420 220 0 220 0 0 -157 c0 -133
3 -165 19 -199 10 -23 24 -45 30 -48 6 -4 11 -13 11 -20 0 -9 -22 -16 -67 -21
-198 -20 -293 -74 -309 -177 -7 -44 27 -95 86 -128 44 -25 49 -25 260 -25 118
0 323 3 455 5 266 6 333 -3 385 -47 18 -14 30 -34 30 -48 0 -91 -88 -126 -390
-155 -391 -37 -488 -70 -541 -185 -15 -32 -19 -65 -19 -161 l0 -121 298 -6
c230 -4 310 -9 356 -22 191 -53 303 -163 351 -345 28 -103 23 -282 -9 -391
-31 -106 -55 -149 -120 -217 -98 -103 -237 -153 -436 -155 -69 -1 -133 1 -142
5 -17 7 -18 37 -18 433 l0 425 -140 0 -140 0 0 -534 0 -535 58 -8 c31 -4 163
-8 292 -8 203 1 249 4 335 23 327 71 514 232 601 517 26 84 28 103 28 275 1
179 0 188 -28 270 -37 106 -80 180 -148 251 -97 103 -231 173 -384 203 -81 16
-326 38 -347 31 -7 -2 -74 -6 -149 -9 l-138 -7 0 24 c0 29 22 50 81 76 53 24
119 34 387 61 202 21 221 24 291 46 126 41 183 106 183 209 1 94 -55 157 -176
196 -80 26 -183 29 -701 19 -201 -4 -269 -2 -297 8 -43 15 -46 22 -19 46 25
23 63 32 199 51 78 11 145 28 206 51 125 49 159 73 190 135 25 50 26 60 26
211 l0 158 220 0 220 0 0 420 0 420 953 0 c1069 0 1025 -3 1090 69 68 76 57
188 -26 255 l-39 31 -986 5 -987 5 -3 423 -2 422 -660 0 -660 0 -2 -422z"/>
<path d="M2274 4790 c-40 -13 -100 -74 -115 -117 -40 -122 59 -261 179 -251
l37 3 0 185 0 185 -35 2 c-19 1 -49 -2 -66 -7z"/>
<path d="M3850 4610 l0 -190 43 0 c126 1 218 130 178 252 -23 69 -109 128
-187 128 l-34 0 0 -190z"/>
<path d="M2150 1526 c-119 -27 -250 -81 -250 -104 0 -19 51 -177 60 -186 6 -6
14 -5 23 3 8 6 52 26 98 43 71 26 99 31 179 32 87 1 99 -1 146 -27 131 -73
124 -245 -14 -320 -52 -28 -157 -47 -264 -47 l-48 0 0 -100 0 -100 63 0 c223
-1 350 -61 391 -183 20 -60 20 -91 1 -149 -53 -154 -277 -206 -515 -118 -47
17 -91 32 -99 33 -10 1 -24 -25 -42 -83 -15 -47 -28 -93 -28 -102 -1 -24 73
-60 184 -89 116 -31 323 -34 425 -6 230 62 362 203 377 404 14 176 -91 323
-271 384 l-49 17 62 31 c85 44 135 92 173 168 28 58 32 75 32 147 0 67 -5 92
-29 144 -45 100 -139 172 -272 206 -73 19 -252 20 -333 2z"/>
</g>
</svg>
